<svg xmlns="http://www.w3.org/2000/svg" width="49.973" height="43.637" viewBox="0 0 50 43.6"><defs><style>.a,.b,.e{fill:none}.a,.b,.c{stroke:#3e3e3e}.a,.c{stroke-miterlimit:10;stroke-width:1.417px}.c{fill:#fff}.d{stroke:none}</style></defs><g transform="translate(-209.134 -297.548)"><g class="a" transform="translate(212.508 297.548)"><rect class="d" width="46.599" height="32.377" rx="2.232"/><rect class="e" x=".7" y=".7" width="45.181" height="30.96" rx="1.524"/></g><path class="a" d="M213.1 323h45"/><rect class="b" width="15.111" height="1.68" rx=".84" transform="rotate(-45 508.559 -134.614)"/><rect class="b" width="6.967" height="1.68" rx=".84" transform="rotate(-45 511.449 -141.56)"/><path class="a" d="M235.8 340.5h7.7a.3.3 0 0 0 .1-.6c-.7-.4-2.6-1-2.6-2v-8.6h-5.2M235.8 340.5h-7.7a.3.3 0 0 1 0-.6c.6-.4 2.5-1 2.5-2v-8.6h5.2"/><g class="c"><path class="d" d="M209.1 306h19.4v11.7h-19.4z"/><path class="e" d="M209.8 306.7h18V317h-18z"/></g><path class="a" d="M215.3 309.8l-2.2 2.2 2.2 2.2M222.8 309.8l2.2 2.2-2.2 2.2"/><path class="c" d="M217 314.6l3.6-5.6"/></g></svg>