<svg xmlns="http://www.w3.org/2000/svg" width="50.068" height="32.377" viewBox="0 0 50.1 32.4"><defs><style>.a,.b,.e{fill:none;}.a,.b{stroke:#3e3e3e;}.a{stroke-miterlimit:10;stroke-width:1.417px;}.c{fill:#3e3e3e;}.d{stroke:none;}</style></defs><g transform="translate(-319.94 -298.138)"><g class="a" transform="translate(319.94 298.138)"><rect class="d" width="50.068" height="32.377" rx="2.232"/><rect class="e" x=".7" y=".7" width="48.65" height="30.96" rx="1.524"/></g><path class="a" d="M321 305h48.2"/><circle class="b" cx="1.414" cy="1.414" r="1.414" transform="translate(323.512 300.595)"/><circle class="b" cx="1.414" cy="1.414" r="1.414" transform="translate(328.076 300.595)"/><circle class="b" cx="1.414" cy="1.414" r="1.414" transform="translate(332.639 300.595)"/><path class="c" d="M345 324.6a7.2 7.2 0 1 1 7.2-7 7.2 7.2 0 0 1-7.2 7zm-1.6-3.2l1.4-4.1a.3.3 0 0 0 0-.2l-1-2.6a.2.2 0 0 0-.1-.1h-.5c-.1 0-.3-.1-.3-.3a.2.2 0 0 1 .3-.2H346.6c.2 0 .3 0 .3.2a.3.3 0 0 1-.3.3h-.7l2.3 7 1-3.3a3 3 0 0 0 0-1.4 4 4 0 0 0-.6-1.4 3.3 3.3 0 0 1-.5-1.2 1.1 1.1 0 0 1 .8-1.3h.3a6.5 6.5 0 0 0-9.8 1.3h2.1a.3.3 0 0 1 .3.2l-.3.3h-.7zm3.8 2l-2-5.5-1.1 3.3-.8 2.2v.2c.4 0 .8 0 1 .2a6 6 0 0 0 2 0l.8-.2zm-5-.2l-3-8.4c-.6.7-.8 3-.3 4.6a6.4 6.4 0 0 0 3.2 3.9zm6-.3a6.5 6.5 0 0 0 3.3-5.2 6 6 0 0 0-.8-3.5 5.8 5.8 0 0 1 0 1.5 9.1 9.1 0 0 1-.4 1.5l-1.7 4.8z"/></g></svg>